HIERARCHY
ROOT SpineBase
{
  OFFSET 0.000000 0.000000 0.000000
  CHANNELS 6 Xposition Yposition Zposition Zrotation Xrotation Yrotation
  JOINT SpineMid
  {
    OFFSET -0.000000 29.924669 0.000000
    CHANNELS 3 Zrotation Xrotation Yrotation
    JOINT SpineShoulder
    {
      OFFSET -0.340880 21.419814 -0.612566
      CHANNELS 3 Zrotation Xrotation Yrotation
      JOINT Neck
      {
        OFFSET 0.062320 7.074757 -0.423936
        CHANNELS 3 Zrotation Xrotation Yrotation
        JOINT Head
        {
          OFFSET -0.730500 11.339986 5.287931
          CHANNELS 3 Zrotation Xrotation Yrotation
          End Site
          {
            OFFSET 0 0 0
          }
        }
      }
      JOINT ShoulderLeft
      {
        OFFSET -8.376557 7.125876 0.370100
        CHANNELS 3 Zrotation Xrotation Yrotation
        JOINT ElbowLeft
        {
          OFFSET 0.537324 -26.146439 -13.990657
          CHANNELS 3 Zrotation Xrotation Yrotation
          JOINT WristLeft
          {
            OFFSET 0.417021 -25.722248 -13.203312
            CHANNELS 3 Zrotation Xrotation Yrotation
            JOINT HandLeft
            {
              OFFSET -0.948166 -6.840402 -1.481088
              CHANNELS 3 Zrotation Xrotation Yrotation
              JOINT HandTipLeft
              {
                OFFSET -0.443813 -4.028648 -1.315936
                CHANNELS 3 Zrotation Xrotation Yrotation
                End Site
                {
                  OFFSET 0 0 0
                }
              }
              JOINT ThumbLeft
              {
                OFFSET 0.713030 -0.237235 -0.951902
                CHANNELS 3 Zrotation Xrotation Yrotation
                End Site
                {
                  OFFSET 0 0 0
                }
              }
            }
          }
        }
      }
      JOINT ShoulderRight
      {
        OFFSET 0.209292 -4.618151 -11.975592
        CHANNELS 3 Zrotation Xrotation Yrotation
        JOINT ElbowRight
        {
          OFFSET -6.552692 -25.502772 -7.055930
          CHANNELS 3 Zrotation Xrotation Yrotation
          JOINT WristRight
          {
            OFFSET -6.638827 -20.218276 -3.938990
            CHANNELS 3 Zrotation Xrotation Yrotation
            JOINT HandRight
            {
              OFFSET -1.872597 -3.755086 0.853962
              CHANNELS 3 Zrotation Xrotation Yrotation
              JOINT HandTipRight
              {
                OFFSET -2.150807 -4.560114 0.135939
                CHANNELS 3 Zrotation Xrotation Yrotation
                End Site
                {
                  OFFSET 0 0 0
                }
              }
              JOINT ThumbRight
              {
                OFFSET 2.981115 -0.490957 -0.381966
                CHANNELS 3 Zrotation Xrotation Yrotation
                End Site
                {
                  OFFSET 0 0 0
                }
              }
            }
          }
        }
      }
    }
  }
  JOINT HipLeft
  {
    OFFSET -2.730577 0.598260 -7.237723
    CHANNELS 3 Zrotation Xrotation Yrotation
    JOINT KneeLeft
    {
      OFFSET -1.500390 -30.449662 1.804968
      CHANNELS 3 Zrotation Xrotation Yrotation
      JOINT AnkleLeft
      {
        OFFSET -9.064243 -21.140667 7.310777
        CHANNELS 3 Zrotation Xrotation Yrotation
        JOINT FootLeft
        {
          OFFSET 5.081967 -1.583806 -6.275411
          CHANNELS 3 Zrotation Xrotation Yrotation
          End Site
          {
            OFFSET 0 0 0
          }
        }
      }
    }
  }
  JOINT HipRight
  {
    OFFSET 3.639906 0.393916 0.472761
    CHANNELS 3 Zrotation Xrotation Yrotation
    JOINT KneeRight
    {
      OFFSET 6.507153 -22.522047 18.498993
      CHANNELS 3 Zrotation Xrotation Yrotation
      JOINT AnkleRight
      {
        OFFSET 10.962793 -15.279073 11.993968
        CHANNELS 3 Zrotation Xrotation Yrotation
        JOINT FootRight
        {
          OFFSET -7.658774 -4.764411 -7.654761
          CHANNELS 3 Zrotation Xrotation Yrotation
          End Site
          {
            OFFSET 0 0 0
          }
        }
      }
    }
  }
}
MOTION
Frames: 12
Frame Time: 0.033333
-55.388087 64.306007 360.425825 0.000000 0.000000 -50.436123 -0.000000 -0.000000 50.436123 -0.000000 0.000000 0.000000 -0.000000 0.000000 0.000000 0.000000 0.000000 0.000000 -0.000000 0.000000 0.000000 -0.000000 0.000000 0.000000 -0.000000 0.000000 0.000000 -0.000000 0.000000 0.000000 0.000000 0.000000 0.000000 0.000000 0.000000 0.000000 -0.000000 0.000000 0.000000 -0.000000 0.000000 0.000000 -0.000000 0.000000 0.000000 -0.000000 0.000000 0.000000 0.000000 0.000000 0.000000 0.000000 0.000000 0.000000 -0.000000 -0.000000 50.436123 -0.000000 0.000000 0.000000 -0.000000 0.000000 0.000000 0.000000 0.000000 0.000000 -0.000000 -0.000000 50.436123 -0.000000 0.000000 0.000000 -0.000000 0.000000 0.000000 0.000000 0.000000 0.000000
-56.527478 63.977952 360.080943 -1.550936 0.570261 -51.016258 -0.010271 0.163569 50.996020 0.288164 -0.152645 -0.042847 1.142799 -0.526925 0.078363 0.000000 0.000000 0.000000 -0.343733 -2.023240 0.816342 0.938553 0.089797 -0.521034 2.322536 3.410167 -1.002329 -3.998720 -3.470518 1.420192 0.000000 0.000000 0.000000 0.000000 0.000000 0.000000 -0.249823 -1.735481 0.746490 0.881876 -2.386057 0.560776 10.639893 1.323728 1.707824 -6.179935 -3.321063 -0.343006 0.000000 0.000000 0.000000 0.000000 0.000000 0.000000 3.430598 1.676341 51.133781 -2.986174 0.267613 -0.172014 3.244485 0.990040 -7.414001 0.000000 0.000000 0.000000 3.247334 1.091288 51.708560 -1.324509 1.283599 -0.711158 0.515667 2.060110 -4.060100 0.000000 0.000000 0.000000
-57.268124 63.730613 359.897090 -2.603606 0.951236 -51.740097 -0.055038 0.242912 51.715746 0.465211 -0.248610 -0.074569 1.983749 -0.891613 0.142129 0.000000 0.000000 0.000000 -0.491666 -3.665199 1.330428 1.690024 -0.012490 -0.962426 4.054601 6.134605 -1.802267 -6.781788 -5.881267 2.233685 0.000000 0.000000 0.000000 0.000000 0.000000 0.000000 -0.526880 -3.202010 1.340421 1.565654 -4.308608 0.991283 19.108596 0.819112 3.474496 -10.320209 -3.945154 -1.068699 0.000000 0.000000 0.000000 0.000000 0.000000 0.000000 5.651742 2.771036 51.879601 -4.727708 0.573628 -0.241089 4.838066 1.359498 -11.089440 0.000000 0.000000 0.000000 5.353286 1.882435 52.817818 -2.148198 2.127557 -1.133401 0.868191 5.156026 -9.156330 0.000000 0.000000 0.000000
-57.610025 63.563992 359.874266 -3.168546 1.147064 -52.659536 -0.135394 0.235526 52.634114 0.536909 -0.291533 -0.095701 2.529623 -1.098596 0.185469 0.000000 0.000000 0.000000 -0.448721 -4.914775 1.575596 2.243421 -0.329202 -1.308214 5.331403 8.430368 -2.422886 -8.544872 -7.401077 2.661622 0.000000 0.000000 0.000000 0.000000 0.000000 0.000000 -0.790242 -4.363116 1.784986 2.010086 -5.785056 1.326760 25.435303 -1.194440 5.801525 -12.340425 -2.154506 -2.504105 0.000000 0.000000 0.000000 0.000000 0.000000 0.000000 6.782283 3.312539 52.791358 -5.282509 0.986899 -0.251486 5.028184 1.286356 -11.974663 0.000000 0.000000 0.000000 6.338241 2.344294 53.861889 -3.345946 3.281436 -1.404635 2.042120 8.881416 -15.377080 0.000000 0.000000 0.000000
-57.553182 63.478086 360.012473 -3.251467 1.160080 -53.807343 -0.251666 0.137007 53.777106 0.507374 -0.283900 -0.106399 2.785759 -1.151269 0.205018 0.000000 0.000000 0.000000 -0.217721 -5.769199 1.573663 2.602621 -0.880984 -1.548142 6.235131 10.450341 -2.881375 -9.415857 -8.140873 2.821248 0.000000 0.000000 0.000000 0.000000 0.000000 0.000000 -1.010160 -5.188641 2.084902 2.187206 -6.843225 1.600373 29.892668 -4.391365 8.899283 -12.272311 1.730233 -5.096270 0.000000 0.000000 0.000000 0.000000 0.000000 0.000000 6.893450 3.286737 53.934748 -4.677277 1.543364 -0.228698 3.867643 0.778775 -10.309486 0.000000 0.000000 0.000000 6.221936 2.436282 54.899805 -3.421157 3.478233 -1.286912 2.830867 14.743401 -23.310508 0.000000 0.000000 0.000000
-57.097595 63.472898 360.311708 -2.852176 0.990137 -55.202704 -0.403012 -0.059511 55.163023 0.378664 -0.226865 -0.106459 2.755722 -1.051611 0.199652 0.000000 0.000000 0.000000 0.200852 -6.230942 1.334373 2.784691 -1.689786 -1.675982 6.819791 12.291546 -3.189646 -9.495758 -8.176586 2.766969 0.000000 0.000000 0.000000 0.000000 0.000000 0.000000 -1.170012 -5.656542 2.244426 2.081625 -7.512046 1.838294 32.830856 -8.515325 12.772552 -10.017455 7.388198 -9.402598 0.000000 0.000000 0.000000 0.000000 0.000000 0.000000 6.023494 2.627600 55.335288 -2.734174 2.463275 -0.224727 1.053306 -0.491527 -5.670651 0.000000 0.000000 0.000000 5.025136 2.096138 55.954348 -2.985808 3.214593 -0.896354 4.318087 22.251572 -32.863111 0.000000 0.000000 0.000000
-54.744489 63.910775 361.169599 0.000498 0.108592 -58.320299 -1.144782 -0.985941 58.276883 -0.639628 0.104403 -0.099593 2.080936 -0.664708 0.142609 0.000000 0.000000 0.000000 0.425059 -5.875695 0.850922 2.739676 -3.567117 -1.651492 6.161902 10.196880 -2.170281 -10.854039 -2.090823 2.779020 0.000000 0.000000 0.000000 0.000000 0.000000 0.000000 -0.539852 -5.141587 1.895329 0.670596 -8.064884 2.464004 38.683035 -13.083813 18.578924 -4.743048 15.221697 -18.739508 0.000000 0.000000 0.000000 0.000000 0.000000 0.000000 0.442916 -2.043046 58.303639 3.107636 2.249158 0.121159 -7.240635 -6.581014 5.398605 0.000000 0.000000 0.000000 -0.647603 -0.984997 57.383585 -0.237835 1.062663 0.708661 11.610254 39.250163 -55.872104 0.000000 0.000000 0.000000
-53.962677 64.012652 361.644331 0.698924 -0.255633 -59.303219 -0.576614 -0.470493 59.302411 -1.399930 0.125878 -0.083459 1.400115 -0.123801 0.086509 0.000000 0.000000 0.000000 1.099895 -5.357637 0.130452 2.548690 -5.250484 -1.466995 5.667622 10.749768 -1.678165 -8.846130 1.763275 1.759946 0.000000 0.000000 0.000000 0.000000 0.000000 0.000000 -0.465019 -4.779047 1.732166 -0.309154 -7.533527 2.597704 40.547942 -17.528160 23.462217 8.093745 24.005198 -34.927146 0.000000 0.000000 0.000000 0.000000 0.000000 0.000000 -1.023989 -3.334959 59.181310 6.382971 3.446653 0.204037 -13.006410 -10.014166 22.139098 0.000000 0.000000 0.000000 -3.233119 -2.272558 57.210624 2.472486 -0.069061 2.582564 18.635065 46.089572 -71.020923 0.000000 0.000000 0.000000
-53.518369 64.089698 361.993950 1.301225 -0.468302 -61.131938 -1.131400 -1.746193 61.099576 -0.003551 0.028258 -0.016572 0.589118 1.264111 0.194071 0.000000 0.000000 0.000000 2.460612 -4.811341 -0.918011 2.729676 -7.255977 -1.347684 4.986331 14.696856 -1.659794 -4.075633 0.053430 0.232368 0.000000 0.000000 0.000000 0.000000 0.000000 0.000000 -0.605598 -4.365163 1.586288 -0.824564 -6.527009 2.445630 38.371871 -23.783382 28.419196 20.633930 31.870736 -49.925697 0.000000 0.000000 0.000000 0.000000 0.000000 0.000000 -1.703522 -4.484807 60.949849 9.200829 5.089139 0.108067 -18.318078 -14.916103 39.628459 0.000000 0.000000 0.000000 -4.600917 -2.676239 58.938493 1.978159 -0.183949 2.548386 20.730119 47.718127 -73.681607 0.000000 0.000000 0.000000
-53.358319 64.223612 362.242897 1.673477 -0.590214 -62.473197 -1.321541 -2.379353 62.429140 1.046890 0.518760 0.033456 -1.311224 1.105890 0.692743 0.000000 0.000000 0.000000 4.202395 -5.082005 -2.218324 3.265730 -8.564931 -1.272208 3.227825 20.930313 -1.745452 3.408783 -6.134652 -0.384966 0.000000 0.000000 0.000000 0.000000 0.000000 0.000000 -1.123424 -4.717282 1.490449 -1.133545 -6.417150 2.511476 38.576050 -31.786748 35.671796 34.546802 38.404375 -67.340626 0.000000 0.000000 0.000000 0.000000 0.000000 0.000000 -2.058755 -5.142671 62.255069 11.485595 6.613880 -0.080993 -21.634232 -17.938287 53.885239 0.000000 0.000000 0.000000 -5.156223 -2.268260 60.920256 -0.052495 0.300934 1.588902 16.944618 46.000702 -65.823785 0.000000 0.000000 0.000000
-53.684885 64.116373 362.333328 1.482941 -0.505339 -63.765918 -1.342779 -2.839978 63.697410 1.782783 -0.307681 0.063024 -1.805106 2.037444 0.884119 0.000000 0.000000 0.000000 6.717895 -4.186665 -3.668170 4.153563 -9.001826 -1.344150 1.657290 27.759531 -2.382223 11.695858 -16.834434 2.540295 0.000000 0.000000 0.000000 0.000000 0.000000 0.000000 -1.339293 -3.951994 1.541614 -1.029017 -6.322435 2.456962 33.118700 -35.446334 35.320802 43.495138 41.751598 -74.135611 0.000000 0.000000 0.000000 0.000000 0.000000 0.000000 -1.638204 -4.830924 63.580544 12.751348 7.872688 -0.316455 -23.910956 -20.121583 63.991629 0.000000 0.000000 0.000000 -4.007156 -0.749235 63.721632 -3.854810 2.289532 -0.177673 7.906365 38.362843 -46.887226 0.000000 0.000000 0.000000
-54.313005 64.613512 362.314223 0.845240 -0.295290 -63.287373 -1.345855 -3.016254 63.186398 2.600368 -0.464560 0.084505 -2.100239 2.187739 1.026182 0.000000 0.000000 0.000000 9.516695 -4.277103 -5.136669 5.053830 -8.312397 -1.522890 0.352354 33.402794 -3.318818 21.578582 -27.215722 9.200298 0.000000 0.000000 0.000000 0.000000 0.000000 0.000000 -1.869507 -4.008577 1.694926 -0.505390 -6.260480 2.272963 29.851310 -36.439462 34.078634 42.759539 38.322818 -68.832013 0.000000 0.000000 0.000000 0.000000 0.000000 0.000000 -1.002594 -3.058185 63.174299 12.522557 8.339437 -0.470744 -25.579778 -23.842089 68.666696 0.000000 0.000000 0.000000 -2.117254 1.595074 65.073420 -8.860699 5.562087 -2.249928 2.844967 18.430460 -22.677995 0.000000 0.000000 0.000000
